M48
;Layer_Color=9474304
;FILE_FORMAT=2:5
INCH,LZ
;TYPE=PLATED
T01F00S00C0.02800
T02F00S00C0.04331
;TYPE=NON_PLATED
T03F00S00C0.07480
%
T01
X0025Y01045
X0092Y01255
X01375Y01175
X01735Y01115
X020789Y008511
X0257146Y0082854
X03055Y00735
X0364Y00725
X0409886Y0072094
X045539Y007161
X0504Y00715
X0554Y007
X06035Y0069
X065339Y006839
X07025Y0068
X075239Y006689
T02
X0159197Y0148197
X0169197
X0179197
X0189197
X0199197
X0209197
X0219197
X0229197
Y0158197
X0219197
X0209197
X0199197
X0189197
X0179197
X0169197
X0159197
T03
X0025441Y0037236
Y0064795
X0074941
Y0037236
X0124441
Y0064795
X0173941
Y0037236
X0223441
Y0064795
X0272697
Y0037236
X0322441
Y0064795
X0371941
Y0037236
X0421697Y0037197
Y0064756
X0470941Y0064795
Y0037236
X0520441
Y0064795
X0569941
Y0037236
X0619441
Y0064795
X0668941
Y0037236
X0718441
Y0064795
X0767941
Y0037236
M30
