G04*
G04 #@! TF.GenerationSoftware,Altium Limited,Altium Designer,23.8.1 (32)*
G04*
G04 Layer_Color=16711935*
%FSLAX44Y44*%
%MOMM*%
G71*
G04*
G04 #@! TF.SameCoordinates,9B7DD0FC-F728-475A-84FD-1554B911927E*
G04*
G04*
G04 #@! TF.FilePolarity,Negative*
G04*
G01*
G75*
%ADD24C,2.1031*%
%ADD25C,1.8532*%
G04:AMPARAMS|DCode=26|XSize=1.8532mm|YSize=1.8532mm|CornerRadius=0.5141mm|HoleSize=0mm|Usage=FLASHONLY|Rotation=0.000|XOffset=0mm|YOffset=0mm|HoleType=Round|Shape=RoundedRectangle|*
%AMROUNDEDRECTD26*
21,1,1.8532,0.8250,0,0,0.0*
21,1,0.8250,1.8532,0,0,0.0*
1,1,1.0282,0.4125,-0.4125*
1,1,1.0282,-0.4125,-0.4125*
1,1,1.0282,-0.4125,0.4125*
1,1,1.0282,0.4125,0.4125*
%
%ADD26ROUNDEDRECTD26*%
%ADD27C,1.4732*%
D24*
X1071110Y94480D02*
D03*
Y164480D02*
D03*
X692650Y94579D02*
D03*
Y164579D02*
D03*
X1950570Y94579D02*
D03*
Y164579D02*
D03*
X1824840Y94579D02*
D03*
Y164579D02*
D03*
X1699110Y94579D02*
D03*
Y164579D02*
D03*
X1573380Y94579D02*
D03*
Y164579D02*
D03*
X1447650Y94579D02*
D03*
Y164579D02*
D03*
X1321920Y94579D02*
D03*
Y164579D02*
D03*
X1196190Y94579D02*
D03*
Y164579D02*
D03*
X944730Y94579D02*
D03*
Y164579D02*
D03*
X819000Y94579D02*
D03*
Y164579D02*
D03*
X567540Y94579D02*
D03*
Y164579D02*
D03*
X441810Y94579D02*
D03*
Y164579D02*
D03*
X316080Y94579D02*
D03*
Y164579D02*
D03*
X190350Y94579D02*
D03*
Y164579D02*
D03*
X64620Y94579D02*
D03*
Y164579D02*
D03*
D25*
X582160Y401820D02*
D03*
X556760D02*
D03*
X582160Y376420D02*
D03*
X556760D02*
D03*
X480560Y401820D02*
D03*
Y376420D02*
D03*
X455160Y401820D02*
D03*
Y376420D02*
D03*
X404360Y401820D02*
D03*
X429760Y376420D02*
D03*
Y401820D02*
D03*
X505960Y376420D02*
D03*
Y401820D02*
D03*
X531360Y376420D02*
D03*
Y401820D02*
D03*
D26*
X404360Y376420D02*
D03*
D27*
X349250Y298450D02*
D03*
X1911070Y169900D02*
D03*
X1532890Y175260D02*
D03*
X1784350Y172720D02*
D03*
X1659610Y173710D02*
D03*
X1407160Y177800D02*
D03*
X1280160Y181610D02*
D03*
X1156690Y181890D02*
D03*
X1041110Y183120D02*
D03*
X924560Y184150D02*
D03*
X775970Y186690D02*
D03*
X653150Y210450D02*
D03*
X528040Y216180D02*
D03*
X440690Y283210D02*
D03*
X233680Y318770D02*
D03*
X63500Y265430D02*
D03*
M02*
