G04*
G04 #@! TF.GenerationSoftware,Altium Limited,Altium Designer,23.8.1 (32)*
G04*
G04 Layer_Color=255*
%FSLAX44Y44*%
%MOMM*%
G71*
G04*
G04 #@! TF.SameCoordinates,9B7DD0FC-F728-475A-84FD-1554B911927E*
G04*
G04*
G04 #@! TF.FilePolarity,Positive*
G04*
G01*
G75*
%ADD28C,1.8999*%
%ADD29C,1.6500*%
G04:AMPARAMS|DCode=30|XSize=1.65mm|YSize=1.65mm|CornerRadius=0.4125mm|HoleSize=0mm|Usage=FLASHONLY|Rotation=0.000|XOffset=0mm|YOffset=0mm|HoleType=Round|Shape=RoundedRectangle|*
%AMROUNDEDRECTD30*
21,1,1.6500,0.8250,0,0,0.0*
21,1,0.8250,1.6500,0,0,0.0*
1,1,0.8250,0.4125,-0.4125*
1,1,0.8250,-0.4125,-0.4125*
1,1,0.8250,-0.4125,0.4125*
1,1,0.8250,0.4125,0.4125*
%
%ADD30ROUNDEDRECTD30*%
D28*
X1071110Y94480D02*
D03*
Y164480D02*
D03*
X692650Y94579D02*
D03*
Y164579D02*
D03*
X1950570Y94579D02*
D03*
Y164579D02*
D03*
X1824840Y94579D02*
D03*
Y164579D02*
D03*
X1699110Y94579D02*
D03*
Y164579D02*
D03*
X1573380Y94579D02*
D03*
Y164579D02*
D03*
X1447650Y94579D02*
D03*
Y164579D02*
D03*
X1321920Y94579D02*
D03*
Y164579D02*
D03*
X1196190Y94579D02*
D03*
Y164579D02*
D03*
X944730Y94579D02*
D03*
Y164579D02*
D03*
X819000Y94579D02*
D03*
Y164579D02*
D03*
X567540Y94579D02*
D03*
Y164579D02*
D03*
X441810Y94579D02*
D03*
Y164579D02*
D03*
X316080Y94579D02*
D03*
Y164579D02*
D03*
X190350Y94579D02*
D03*
Y164579D02*
D03*
X64620Y94579D02*
D03*
Y164579D02*
D03*
D29*
X582160Y401820D02*
D03*
X556760D02*
D03*
X582160Y376420D02*
D03*
X556760D02*
D03*
X480560Y401820D02*
D03*
Y376420D02*
D03*
X455160Y401820D02*
D03*
Y376420D02*
D03*
X404360Y401820D02*
D03*
X429760Y376420D02*
D03*
Y401820D02*
D03*
X505960Y376420D02*
D03*
Y401820D02*
D03*
X531360Y376420D02*
D03*
Y401820D02*
D03*
D30*
X404360Y376420D02*
D03*
M02*
