G04*
G04 #@! TF.GenerationSoftware,Altium Limited,Altium Designer,23.8.1 (32)*
G04*
G04 Layer_Color=8421504*
%FSLAX44Y44*%
%MOMM*%
G71*
G04*
G04 #@! TF.SameCoordinates,2CD9F57F-E5B0-4E4F-9D8E-019A79B69F08*
G04*
G04*
G04 #@! TF.FilePolarity,Positive*
G04*
G01*
G75*
%ADD14R,2.3000X2.0000*%
%ADD15R,2.3000X2.1999*%
%ADD16R,2.3000X2.8001*%
%ADD17R,2.8001X2.5999*%
%ADD18R,0.3500X1.6000*%
D14*
X1031610Y74480D02*
D03*
X653150Y74579D02*
D03*
X1911070D02*
D03*
X1785340D02*
D03*
X1659610D02*
D03*
X1533880D02*
D03*
X1408150D02*
D03*
X1282420D02*
D03*
X1156690D02*
D03*
X905230D02*
D03*
X779500D02*
D03*
X528040D02*
D03*
X402310D02*
D03*
X276580D02*
D03*
X150850D02*
D03*
X25621D02*
D03*
D15*
X1110610Y83482D02*
D03*
X1031610Y102481D02*
D03*
X732150Y83581D02*
D03*
X653150Y102580D02*
D03*
X1990069Y83581D02*
D03*
X1911070Y102580D02*
D03*
X1864339Y83581D02*
D03*
X1785340Y102580D02*
D03*
X1738609Y83581D02*
D03*
X1659610Y102580D02*
D03*
X1612879Y83581D02*
D03*
X1533880Y102580D02*
D03*
X1487149Y83581D02*
D03*
X1408150Y102580D02*
D03*
X1361419Y83581D02*
D03*
X1282420Y102580D02*
D03*
X1235689Y83581D02*
D03*
X1156690Y102580D02*
D03*
X984229Y83581D02*
D03*
X905230Y102580D02*
D03*
X858499Y83581D02*
D03*
X779500Y102580D02*
D03*
X607039Y83581D02*
D03*
X528040Y102580D02*
D03*
X481309Y83581D02*
D03*
X402310Y102580D02*
D03*
X355579Y83581D02*
D03*
X276580Y102580D02*
D03*
X229849Y83581D02*
D03*
X150850Y102580D02*
D03*
X104620Y83581D02*
D03*
X25621Y102580D02*
D03*
D16*
X1110610Y177482D02*
D03*
X732150Y177581D02*
D03*
X1990069D02*
D03*
X1864339D02*
D03*
X1738609D02*
D03*
X1612879D02*
D03*
X1487149D02*
D03*
X1361419D02*
D03*
X1235689D02*
D03*
X984229D02*
D03*
X858499D02*
D03*
X607039D02*
D03*
X481309D02*
D03*
X355579D02*
D03*
X229849D02*
D03*
X104620D02*
D03*
D17*
X1063609Y217482D02*
D03*
X685149Y217581D02*
D03*
X1943069D02*
D03*
X1817339D02*
D03*
X1691609D02*
D03*
X1565879D02*
D03*
X1440149D02*
D03*
X1314419D02*
D03*
X1188689D02*
D03*
X937229D02*
D03*
X811499D02*
D03*
X560039D02*
D03*
X434309D02*
D03*
X308579D02*
D03*
X182849D02*
D03*
X57620D02*
D03*
D18*
X1074040Y781550D02*
D03*
X1079040D02*
D03*
X1084040D02*
D03*
X1089040D02*
D03*
X1094040D02*
D03*
X1099040D02*
D03*
X1104040D02*
D03*
X1109040D02*
D03*
X1034040D02*
D03*
X1039040D02*
D03*
X1044040D02*
D03*
X1049040D02*
D03*
X1054040D02*
D03*
X1059040D02*
D03*
X1064040D02*
D03*
X1069040D02*
D03*
X954040D02*
D03*
X959040D02*
D03*
X964040D02*
D03*
X969040D02*
D03*
X974040D02*
D03*
X979040D02*
D03*
X984040D02*
D03*
X989040D02*
D03*
X994040D02*
D03*
X999040D02*
D03*
X1004040D02*
D03*
X1009040D02*
D03*
X1014040D02*
D03*
X1019040D02*
D03*
X1024040D02*
D03*
X1029040D02*
D03*
M02*
