G04*
G04 #@! TF.GenerationSoftware,Altium Limited,Altium Designer,23.8.1 (32)*
G04*
G04 Layer_Physical_Order=1*
G04 Layer_Color=255*
%FSLAX44Y44*%
%MOMM*%
G71*
G04*
G04 #@! TF.SameCoordinates,9B7DD0FC-F728-475A-84FD-1554B911927E*
G04*
G04*
G04 #@! TF.FilePolarity,Positive*
G04*
G01*
G75*
%ADD13C,0.2540*%
%ADD14R,2.3000X2.0000*%
%ADD15R,2.3000X2.1999*%
%ADD16R,2.3000X2.8001*%
%ADD17R,2.8001X2.5999*%
%ADD18R,0.3500X1.6000*%
%ADD28C,1.8999*%
%ADD29C,1.6500*%
G04:AMPARAMS|DCode=30|XSize=1.65mm|YSize=1.65mm|CornerRadius=0.4125mm|HoleSize=0mm|Usage=FLASHONLY|Rotation=0.000|XOffset=0mm|YOffset=0mm|HoleType=Round|Shape=RoundedRectangle|*
%AMROUNDEDRECTD30*
21,1,1.6500,0.8250,0,0,0.0*
21,1,0.8250,1.6500,0,0,0.0*
1,1,0.8250,0.4125,-0.4125*
1,1,0.8250,-0.4125,-0.4125*
1,1,0.8250,-0.4125,0.4125*
1,1,0.8250,0.4125,0.4125*
%
%ADD30ROUNDEDRECTD30*%
%ADD31C,1.2700*%
D13*
X343400Y319270D02*
X946650D01*
X253230Y229100D02*
X343400Y319270D01*
X253230Y106962D02*
Y229100D01*
X276580Y102580D02*
Y225780D01*
X349250Y298450D01*
X1911070Y102580D02*
Y169900D01*
X1532890Y175260D02*
X1533880Y174270D01*
Y102580D02*
Y174270D01*
X1784350Y172720D02*
X1785340Y171730D01*
Y102580D02*
Y171730D01*
X1659610Y102580D02*
Y173710D01*
X1407160Y177800D02*
X1408150Y176810D01*
Y102580D02*
Y176810D01*
X1280160Y181610D02*
X1282420Y179350D01*
Y102580D02*
Y179350D01*
X1156690Y102580D02*
Y181890D01*
X1041110Y111981D02*
Y183120D01*
X1031610Y102481D02*
X1041110Y111981D01*
X994459Y93811D02*
X1029040Y128392D01*
Y781550D01*
X924560Y121910D02*
Y184150D01*
X905731Y102580D02*
X915460Y112310D01*
Y112810D01*
X924560Y121910D01*
X905230Y102580D02*
X905731D01*
X775970Y186690D02*
X779500Y183160D01*
Y102580D02*
Y183160D01*
X653150Y102580D02*
Y210450D01*
X528040Y102580D02*
Y216180D01*
X436482Y293370D02*
X436880D01*
X378960Y235450D02*
X430530Y287020D01*
X436880Y293370D02*
X445000Y301490D01*
X430530Y287418D02*
X436482Y293370D01*
X430530Y287020D02*
Y287418D01*
X402310Y244830D02*
X440690Y283210D01*
X402310Y102580D02*
Y244830D01*
X150850Y102580D02*
Y235940D01*
X233680Y318770D01*
X229849Y228579D02*
X329430Y328160D01*
X942840D01*
X229849Y177581D02*
Y228579D01*
X25120Y227050D02*
X63500Y265430D01*
X25120Y102580D02*
Y227050D01*
X212590Y347210D02*
X939030D01*
X954040Y362220D01*
X104119Y238739D02*
X212590Y347210D01*
X1887720Y354830D02*
X2007100Y235450D01*
X1113020Y354830D02*
X1887720D01*
X1109210Y347210D02*
X1850890D01*
X1990069Y208031D01*
Y177581D02*
Y208031D01*
X1109040Y358810D02*
X1113020Y354830D01*
X2007100Y100612D02*
Y235450D01*
X2000299Y93811D02*
X2007100Y100612D01*
X1104040Y352380D02*
X1109210Y347210D01*
X1784850Y338320D02*
X1887720Y235450D01*
X1099040Y344680D02*
X1105400Y338320D01*
X1784850D01*
X1736408Y329430D02*
X1864339Y201499D01*
X1094040Y339520D02*
X1104130Y329430D01*
X1736408D01*
X1101590Y320540D02*
X1678170D01*
X1761990Y236720D01*
X1089040Y333090D02*
X1101590Y320540D01*
X1084040Y325390D02*
X1097780Y311650D01*
X1628458D01*
X1738609Y201499D01*
X1079040Y317690D02*
X1092700Y304030D01*
X1567680D02*
X1636260Y235450D01*
X1092700Y304030D02*
X1567680D01*
X1519238Y295140D02*
X1612879Y201499D01*
X1074040Y311260D02*
X1090160Y295140D01*
X1519238D01*
X1069040Y303560D02*
X1085080Y287520D01*
X1459730D01*
X1510530Y236720D01*
X1064040Y297130D02*
X1082540Y278630D01*
X1410018D02*
X1487149Y201499D01*
X1082540Y278630D02*
X1410018D01*
X1350510Y269740D02*
X1384800Y235450D01*
X1059040Y289430D02*
X1078730Y269740D01*
X1350510D01*
X1099040Y344680D02*
Y781550D01*
X1094040Y339520D02*
Y781550D01*
X1089040Y333090D02*
Y781550D01*
X1084040Y325390D02*
Y781550D01*
X1079040Y317690D02*
Y781550D01*
X1074040Y311260D02*
Y781550D01*
X1069040Y303560D02*
Y781550D01*
X1044040Y270140D02*
Y781550D01*
X1067070Y247110D02*
X1190078D01*
X1044040Y270140D02*
X1067070Y247110D01*
X1049040Y277840D02*
X1072380Y254500D01*
X1049040Y277840D02*
Y781550D01*
X1072380Y254500D02*
X1238750D01*
X1064040Y297130D02*
Y781550D01*
X1109040Y358810D02*
Y781550D01*
X1104040Y352380D02*
Y781550D01*
X1864339Y177581D02*
Y201499D01*
X1738609Y177581D02*
Y201499D01*
X1636260Y106962D02*
Y235450D01*
X1612879Y177581D02*
Y201499D01*
X1510530Y106962D02*
Y236720D01*
X1487149Y177581D02*
Y201499D01*
X1076190Y262120D02*
X1300798D01*
X1361419Y201499D01*
X1238750Y254500D02*
X1257800Y235450D01*
X1190078Y247110D02*
X1235689Y201499D01*
X1361419Y177581D02*
Y201499D01*
X1257800Y105692D02*
Y235450D01*
X1054040Y284270D02*
X1076190Y262120D01*
X1125720Y241800D02*
X1134610Y232910D01*
X1039040Y262440D02*
X1059680Y241800D01*
X1125720D01*
X1235689Y177581D02*
Y201499D01*
X1034040Y249660D02*
X1048250Y235450D01*
X1090160D01*
X1110610Y215000D01*
Y177482D02*
Y215000D01*
X1034040Y249660D02*
Y781550D01*
X2000299Y93310D02*
Y93811D01*
X1990570Y83581D02*
X2000299Y93310D01*
X1990069Y83581D02*
X1990570D01*
X1887720Y106962D02*
Y235450D01*
X1874569Y93811D02*
X1887720Y106962D01*
X1874569Y93310D02*
Y93811D01*
X1864840Y83581D02*
X1874569Y93310D01*
X1864339Y83581D02*
X1864840D01*
X1761990Y106962D02*
Y236720D01*
X1748839Y93811D02*
X1761990Y106962D01*
X1748839Y93310D02*
Y93811D01*
X1739110Y83581D02*
X1748839Y93310D01*
X1738609Y83581D02*
X1739110D01*
X1623109Y93811D02*
X1636260Y106962D01*
X1623109Y93310D02*
Y93811D01*
X1613380Y83581D02*
X1623109Y93310D01*
X1612879Y83581D02*
X1613380D01*
X1134610Y107482D02*
Y232910D01*
X1120839Y93712D02*
X1134610Y107482D01*
X1120839Y93211D02*
Y93712D01*
X1111110Y83482D02*
X1120839Y93211D01*
X1110610Y83482D02*
X1111110D01*
X1245919Y93811D02*
X1257800Y105692D01*
X1245919Y93310D02*
Y93811D01*
X1236190Y83581D02*
X1245919Y93310D01*
X1235689Y83581D02*
X1236190D01*
X1384800Y106962D02*
Y235450D01*
X1371649Y93811D02*
X1384800Y106962D01*
X1371649Y93310D02*
Y93811D01*
X1361920Y83581D02*
X1371649Y93310D01*
X1361419Y83581D02*
X1361920D01*
X1497379Y93811D02*
X1510530Y106962D01*
X1497379Y93310D02*
Y93811D01*
X1487650Y83581D02*
X1497379Y93310D01*
X1487149Y83581D02*
X1487650D01*
X1039040Y262440D02*
Y781550D01*
X1054040Y284270D02*
Y781550D01*
X1059040Y289430D02*
Y781550D01*
X991100Y249420D02*
X1019040Y277360D01*
X919980Y249420D02*
X991100D01*
X1019040Y277360D02*
Y781550D01*
X986020Y255770D02*
X1014040Y283790D01*
X917440Y255770D02*
X986020D01*
X1014040Y283790D02*
Y781550D01*
X823850Y260850D02*
X978400D01*
X1009040Y291490D01*
Y781550D01*
X942840Y328160D02*
X964040Y349360D01*
Y781550D01*
X946650Y319270D02*
X969040Y341660D01*
Y781550D01*
X989040Y317210D02*
Y781550D01*
X958080Y286250D02*
X989040Y317210D01*
X550410Y286250D02*
X958080D01*
X994040Y310780D02*
Y781550D01*
X659630Y279900D02*
X963160D01*
X994040Y310780D01*
X664710Y273550D02*
X968240D01*
X999040Y304350D01*
Y781550D01*
X821768Y267200D02*
X973320D01*
X1004040Y297920D02*
Y781550D01*
X973320Y267200D02*
X1004040Y297920D01*
X984040Y323640D02*
Y781550D01*
X979040Y328800D02*
Y781550D01*
X954270Y293870D02*
X984040Y323640D01*
X951730Y301490D02*
X979040Y328800D01*
X949190Y310380D02*
X974040Y335230D01*
Y781550D01*
X549140Y293870D02*
X954270D01*
X445000Y301490D02*
X951730D01*
X428490Y310380D02*
X949190D01*
X127500Y239260D02*
X225290Y337050D01*
X937760D02*
X959040Y358330D01*
X225290Y337050D02*
X937760D01*
X959040Y358330D02*
Y781550D01*
X954040Y362220D02*
Y781550D01*
X104119Y177581D02*
Y238739D01*
X355579Y237469D02*
X428490Y310380D01*
X355579Y177581D02*
Y237469D01*
X378960Y106962D02*
Y235450D01*
X504690Y240530D02*
X550410Y286250D01*
X481309Y226039D02*
X549140Y293870D01*
X481309Y177581D02*
Y226039D01*
X504690Y106962D02*
Y240530D01*
X607039Y227309D02*
X659630Y279900D01*
X629150Y237990D02*
X664710Y273550D01*
X607039Y177581D02*
Y227309D01*
X629150Y105692D02*
Y237990D01*
X744880Y190312D02*
X821768Y267200D01*
X127500Y106962D02*
Y239260D01*
X104119Y83581D02*
X104620D01*
X114349Y93310D01*
Y93811D01*
X127500Y106962D01*
X230350Y83581D02*
X240079Y93310D01*
Y93811D01*
X229849Y83581D02*
X230350D01*
X240079Y93811D02*
X253230Y106962D01*
X355579Y83581D02*
X356080D01*
X365809Y93310D01*
Y93811D01*
X378960Y106962D01*
X491539Y93811D02*
X504690Y106962D01*
X481309Y83581D02*
X481810D01*
X491539Y93310D01*
Y93811D01*
X607540Y83581D02*
X617269Y93310D01*
Y93811D01*
X607039Y83581D02*
X607540D01*
X617269Y93811D02*
X629150Y105692D01*
X732150Y177581D02*
Y180082D01*
X742379Y190312D01*
X744880D01*
X756150Y193150D02*
X823850Y260850D01*
X756150Y107581D02*
Y193150D01*
X732650Y83581D02*
X742379Y93310D01*
Y93811D01*
X756150Y107581D01*
X732150Y83581D02*
X732650D01*
X858499Y196829D02*
X917440Y255770D01*
X908550Y237990D02*
X919980Y249420D01*
X858499Y177581D02*
Y196829D01*
X908550Y133632D02*
Y237990D01*
X859000Y83581D02*
X868729Y93310D01*
Y93811D01*
X858499Y83581D02*
X859000D01*
X868729Y93811D02*
X908550Y133632D01*
X984229Y83581D02*
X984730D01*
X994459Y93310D01*
Y93811D01*
X1024040Y219893D02*
Y781550D01*
X984229Y180082D02*
X1024040Y219893D01*
X1024040Y781550D02*
X1024040Y781550D01*
X984229Y177581D02*
Y180082D01*
D14*
X1031610Y74480D02*
D03*
X653150Y74579D02*
D03*
X1911070D02*
D03*
X1785340D02*
D03*
X1659610D02*
D03*
X1533880D02*
D03*
X1408150D02*
D03*
X1282420D02*
D03*
X1156690D02*
D03*
X905230D02*
D03*
X779500D02*
D03*
X528040D02*
D03*
X402310D02*
D03*
X276580D02*
D03*
X150850D02*
D03*
X25120D02*
D03*
D15*
X1110610Y83482D02*
D03*
X1031610Y102481D02*
D03*
X732150Y83581D02*
D03*
X653150Y102580D02*
D03*
X1990069Y83581D02*
D03*
X1911070Y102580D02*
D03*
X1864339Y83581D02*
D03*
X1785340Y102580D02*
D03*
X1738609Y83581D02*
D03*
X1659610Y102580D02*
D03*
X1612879Y83581D02*
D03*
X1533880Y102580D02*
D03*
X1487149Y83581D02*
D03*
X1408150Y102580D02*
D03*
X1361419Y83581D02*
D03*
X1282420Y102580D02*
D03*
X1235689Y83581D02*
D03*
X1156690Y102580D02*
D03*
X984229Y83581D02*
D03*
X905230Y102580D02*
D03*
X858499Y83581D02*
D03*
X779500Y102580D02*
D03*
X607039Y83581D02*
D03*
X528040Y102580D02*
D03*
X481309Y83581D02*
D03*
X402310Y102580D02*
D03*
X355579Y83581D02*
D03*
X276580Y102580D02*
D03*
X229849Y83581D02*
D03*
X150850Y102580D02*
D03*
X104119Y83581D02*
D03*
X25120Y102580D02*
D03*
D16*
X1110610Y177482D02*
D03*
X732150Y177581D02*
D03*
X1990069D02*
D03*
X1864339D02*
D03*
X1738609D02*
D03*
X1612879D02*
D03*
X1487149D02*
D03*
X1361419D02*
D03*
X1235689D02*
D03*
X984229D02*
D03*
X858499D02*
D03*
X607039D02*
D03*
X481309D02*
D03*
X355579D02*
D03*
X229849D02*
D03*
X104119D02*
D03*
D17*
X1063609Y217482D02*
D03*
X685149Y217581D02*
D03*
X1943069D02*
D03*
X1817339D02*
D03*
X1691609D02*
D03*
X1565879D02*
D03*
X1440149D02*
D03*
X1314419D02*
D03*
X1188689D02*
D03*
X937229D02*
D03*
X811499D02*
D03*
X560039D02*
D03*
X434309D02*
D03*
X308579D02*
D03*
X182849D02*
D03*
X57119D02*
D03*
D18*
X1074040Y781550D02*
D03*
X1079040D02*
D03*
X1084040D02*
D03*
X1089040D02*
D03*
X1094040D02*
D03*
X1099040D02*
D03*
X1104040D02*
D03*
X1109040D02*
D03*
X1034040D02*
D03*
X1039040D02*
D03*
X1044040D02*
D03*
X1049040D02*
D03*
X1054040D02*
D03*
X1059040D02*
D03*
X1064040D02*
D03*
X1069040D02*
D03*
X954040D02*
D03*
X959040D02*
D03*
X964040D02*
D03*
X969040D02*
D03*
X974040D02*
D03*
X979040D02*
D03*
X984040D02*
D03*
X989040D02*
D03*
X994040D02*
D03*
X999040D02*
D03*
X1004040D02*
D03*
X1009040D02*
D03*
X1014040D02*
D03*
X1019040D02*
D03*
X1024040D02*
D03*
X1029040D02*
D03*
D28*
X1071110Y94480D02*
D03*
Y164480D02*
D03*
X692650Y94579D02*
D03*
Y164579D02*
D03*
X1950570Y94579D02*
D03*
Y164579D02*
D03*
X1824840Y94579D02*
D03*
Y164579D02*
D03*
X1699110Y94579D02*
D03*
Y164579D02*
D03*
X1573380Y94579D02*
D03*
Y164579D02*
D03*
X1447650Y94579D02*
D03*
Y164579D02*
D03*
X1321920Y94579D02*
D03*
Y164579D02*
D03*
X1196190Y94579D02*
D03*
Y164579D02*
D03*
X944730Y94579D02*
D03*
Y164579D02*
D03*
X819000Y94579D02*
D03*
Y164579D02*
D03*
X567540Y94579D02*
D03*
Y164579D02*
D03*
X441810Y94579D02*
D03*
Y164579D02*
D03*
X316080Y94579D02*
D03*
Y164579D02*
D03*
X190350Y94579D02*
D03*
Y164579D02*
D03*
X64620Y94579D02*
D03*
Y164579D02*
D03*
D29*
X582160Y401820D02*
D03*
X556760D02*
D03*
X582160Y376420D02*
D03*
X556760D02*
D03*
X480560Y401820D02*
D03*
Y376420D02*
D03*
X455160Y401820D02*
D03*
Y376420D02*
D03*
X404360Y401820D02*
D03*
X429760Y376420D02*
D03*
Y401820D02*
D03*
X505960Y376420D02*
D03*
Y401820D02*
D03*
X531360Y376420D02*
D03*
Y401820D02*
D03*
D30*
X404360Y376420D02*
D03*
D31*
X349250Y298450D02*
D03*
X1911070Y169900D02*
D03*
X1532890Y175260D02*
D03*
X1784350Y172720D02*
D03*
X1659610Y173710D02*
D03*
X1407160Y177800D02*
D03*
X1280160Y181610D02*
D03*
X1156690Y181890D02*
D03*
X1041110Y183120D02*
D03*
X924560Y184150D02*
D03*
X775970Y186690D02*
D03*
X653150Y210450D02*
D03*
X528040Y216180D02*
D03*
X440690Y283210D02*
D03*
X233680Y318770D02*
D03*
X63500Y265430D02*
D03*
M02*
