G04*
G04 #@! TF.GenerationSoftware,Altium Limited,Altium Designer,23.8.1 (32)*
G04*
G04 Layer_Color=65535*
%FSLAX44Y44*%
%MOMM*%
G71*
G04*
G04 #@! TF.SameCoordinates,9B7DD0FC-F728-475A-84FD-1554B911927E*
G04*
G04*
G04 #@! TF.FilePolarity,Positive*
G04*
G01*
G75*
%ADD10C,0.1999*%
%ADD11C,0.2000*%
%ADD12C,0.1524*%
%ADD13C,0.2540*%
D10*
X1111110Y66482D02*
G03*
X1113109Y66482I1000J0D01*
G01*
D02*
G03*
X1111110Y66482I-1000J0D01*
G01*
X732650Y66581D02*
G03*
X734649Y66581I1000J0D01*
G01*
D02*
G03*
X732650Y66581I-1000J0D01*
G01*
X1990570D02*
G03*
X1992569Y66581I1000J0D01*
G01*
D02*
G03*
X1990570Y66581I-1000J0D01*
G01*
X1864840D02*
G03*
X1866839Y66581I1000J0D01*
G01*
D02*
G03*
X1864840Y66581I-1000J0D01*
G01*
X1739110D02*
G03*
X1741109Y66581I1000J0D01*
G01*
D02*
G03*
X1739110Y66581I-1000J0D01*
G01*
X1613380D02*
G03*
X1615379Y66581I1000J0D01*
G01*
D02*
G03*
X1613380Y66581I-1000J0D01*
G01*
X1487650D02*
G03*
X1489649Y66581I1000J0D01*
G01*
D02*
G03*
X1487650Y66581I-1000J0D01*
G01*
X1361920D02*
G03*
X1363919Y66581I1000J0D01*
G01*
D02*
G03*
X1361920Y66581I-1000J0D01*
G01*
X1236190D02*
G03*
X1238189Y66581I1000J0D01*
G01*
D02*
G03*
X1236190Y66581I-1000J0D01*
G01*
X984730D02*
G03*
X986729Y66581I1000J0D01*
G01*
D02*
G03*
X984730Y66581I-1000J0D01*
G01*
X859000D02*
G03*
X860999Y66581I1000J0D01*
G01*
D02*
G03*
X859000Y66581I-1000J0D01*
G01*
X607540D02*
G03*
X609539Y66581I1000J0D01*
G01*
D02*
G03*
X607540Y66581I-1000J0D01*
G01*
X481810D02*
G03*
X483809Y66581I1000J0D01*
G01*
D02*
G03*
X481810Y66581I-1000J0D01*
G01*
X356080D02*
G03*
X358079Y66581I1000J0D01*
G01*
D02*
G03*
X356080Y66581I-1000J0D01*
G01*
X230350D02*
G03*
X232349Y66581I1000J0D01*
G01*
D02*
G03*
X230350Y66581I-1000J0D01*
G01*
X104620D02*
G03*
X106619Y66581I1000J0D01*
G01*
D02*
G03*
X104620Y66581I-1000J0D01*
G01*
D11*
X596360Y362970D02*
Y415270D01*
X390160D02*
X596360D01*
X390160Y362970D02*
X596360D01*
X390160D02*
Y415270D01*
D12*
X386831Y398120D02*
X380060D01*
X386831Y404891D01*
Y406584D01*
X385138Y408277D01*
X381753D01*
X380060Y406584D01*
X383060Y371120D02*
X386446D01*
X384753D01*
Y381277D01*
X383060Y379584D01*
X599460Y371120D02*
X602846D01*
X601153D01*
Y381277D01*
X599460Y379584D01*
X614695Y381277D02*
X607924D01*
Y376198D01*
X611310Y377891D01*
X613002D01*
X614695Y376198D01*
Y372813D01*
X613002Y371120D01*
X609617D01*
X607924Y372813D01*
X599460Y398120D02*
X602846D01*
X601153D01*
Y408277D01*
X599460Y406584D01*
X614695Y408277D02*
X611310Y406584D01*
X607924Y403198D01*
Y399813D01*
X609617Y398120D01*
X613002D01*
X614695Y399813D01*
Y401506D01*
X613002Y403198D01*
X607924D01*
D13*
X1027419Y258813D02*
X1022340D01*
X1024880D01*
Y246117D01*
X1022340Y243578D01*
X1019801D01*
X1017262Y246117D01*
X1032497D02*
X1035036Y243578D01*
X1040115D01*
X1042654Y246117D01*
Y256274D01*
X1040115Y258813D01*
X1035036D01*
X1032497Y256274D01*
Y253735D01*
X1035036Y251196D01*
X1042654D01*
X648959Y258813D02*
X643880D01*
X646420D01*
Y246117D01*
X643880Y243578D01*
X641341D01*
X638802Y246117D01*
X664194Y258813D02*
X659115Y256274D01*
X654037Y251196D01*
Y246117D01*
X656576Y243578D01*
X661655D01*
X664194Y246117D01*
Y248656D01*
X661655Y251196D01*
X654037D01*
X381000Y425196D02*
Y440431D01*
X388618D01*
X391157Y437892D01*
Y432813D01*
X388618Y430274D01*
X381000D01*
X396235Y425196D02*
X401313D01*
X398774D01*
Y440431D01*
X396235Y437892D01*
X1906767Y258813D02*
X1901688D01*
X1904227D01*
Y246117D01*
X1901688Y243578D01*
X1899149D01*
X1896610Y246117D01*
X1911845Y243578D02*
X1916923D01*
X1914384D01*
Y258813D01*
X1911845Y256274D01*
X1934698Y258813D02*
X1929619Y256274D01*
X1924541Y251196D01*
Y246117D01*
X1927080Y243578D01*
X1932159D01*
X1934698Y246117D01*
Y248656D01*
X1932159Y251196D01*
X1924541D01*
X1781037Y258813D02*
X1775958D01*
X1778497D01*
Y246117D01*
X1775958Y243578D01*
X1773419D01*
X1770880Y246117D01*
X1786115Y243578D02*
X1791193D01*
X1788654D01*
Y258813D01*
X1786115Y256274D01*
X1808968Y258813D02*
X1798811D01*
Y251196D01*
X1803889Y253735D01*
X1806429D01*
X1808968Y251196D01*
Y246117D01*
X1806429Y243578D01*
X1801350D01*
X1798811Y246117D01*
X1655307Y258813D02*
X1650228D01*
X1652767D01*
Y246117D01*
X1650228Y243578D01*
X1647689D01*
X1645150Y246117D01*
X1660385Y243578D02*
X1665463D01*
X1662924D01*
Y258813D01*
X1660385Y256274D01*
X1680699Y243578D02*
Y258813D01*
X1673081Y251196D01*
X1683238D01*
X1529577Y258813D02*
X1524498D01*
X1527038D01*
Y246117D01*
X1524498Y243578D01*
X1521959D01*
X1519420Y246117D01*
X1534655Y243578D02*
X1539733D01*
X1537194D01*
Y258813D01*
X1534655Y256274D01*
X1547351D02*
X1549890Y258813D01*
X1554969D01*
X1557508Y256274D01*
Y253735D01*
X1554969Y251196D01*
X1552429D01*
X1554969D01*
X1557508Y248656D01*
Y246117D01*
X1554969Y243578D01*
X1549890D01*
X1547351Y246117D01*
X1403847Y258813D02*
X1398768D01*
X1401308D01*
Y246117D01*
X1398768Y243578D01*
X1396229D01*
X1393690Y246117D01*
X1408925Y243578D02*
X1414003D01*
X1411464D01*
Y258813D01*
X1408925Y256274D01*
X1431778Y243578D02*
X1421621D01*
X1431778Y253735D01*
Y256274D01*
X1429238Y258813D01*
X1424160D01*
X1421621Y256274D01*
X1278117Y258813D02*
X1273038D01*
X1275577D01*
Y246117D01*
X1273038Y243578D01*
X1270499D01*
X1267960Y246117D01*
X1283195Y243578D02*
X1288273D01*
X1285734D01*
Y258813D01*
X1283195Y256274D01*
X1295891Y243578D02*
X1300969D01*
X1298430D01*
Y258813D01*
X1295891Y256274D01*
X1152387Y258813D02*
X1147308D01*
X1149847D01*
Y246117D01*
X1147308Y243578D01*
X1144769D01*
X1142230Y246117D01*
X1157465Y243578D02*
X1162543D01*
X1160004D01*
Y258813D01*
X1157465Y256274D01*
X1170161D02*
X1172700Y258813D01*
X1177778D01*
X1180318Y256274D01*
Y246117D01*
X1177778Y243578D01*
X1172700D01*
X1170161Y246117D01*
Y256274D01*
X900927Y258813D02*
X895848D01*
X898388D01*
Y246117D01*
X895848Y243578D01*
X893309D01*
X890770Y246117D01*
X906005Y256274D02*
X908544Y258813D01*
X913623D01*
X916162Y256274D01*
Y253735D01*
X913623Y251196D01*
X916162Y248656D01*
Y246117D01*
X913623Y243578D01*
X908544D01*
X906005Y246117D01*
Y248656D01*
X908544Y251196D01*
X906005Y253735D01*
Y256274D01*
X908544Y251196D02*
X913623D01*
X775197Y258813D02*
X770118D01*
X772657D01*
Y246117D01*
X770118Y243578D01*
X767579D01*
X765040Y246117D01*
X780275Y258813D02*
X790432D01*
Y256274D01*
X780275Y246117D01*
Y243578D01*
X523737Y258813D02*
X518658D01*
X521198D01*
Y246117D01*
X518658Y243578D01*
X516119D01*
X513580Y246117D01*
X538972Y258813D02*
X528815D01*
Y251196D01*
X533893Y253735D01*
X536433D01*
X538972Y251196D01*
Y246117D01*
X536433Y243578D01*
X531354D01*
X528815Y246117D01*
X398007Y258813D02*
X392928D01*
X395467D01*
Y246117D01*
X392928Y243578D01*
X390389D01*
X387850Y246117D01*
X410703Y243578D02*
Y258813D01*
X403085Y251196D01*
X413242D01*
X272277Y258813D02*
X267198D01*
X269737D01*
Y246117D01*
X267198Y243578D01*
X264659D01*
X262120Y246117D01*
X277355Y256274D02*
X279894Y258813D01*
X284973D01*
X287512Y256274D01*
Y253735D01*
X284973Y251196D01*
X282433D01*
X284973D01*
X287512Y248656D01*
Y246117D01*
X284973Y243578D01*
X279894D01*
X277355Y246117D01*
X146547Y258813D02*
X141468D01*
X144008D01*
Y246117D01*
X141468Y243578D01*
X138929D01*
X136390Y246117D01*
X161782Y243578D02*
X151625D01*
X161782Y253735D01*
Y256274D01*
X159243Y258813D01*
X154164D01*
X151625Y256274D01*
X20817Y258813D02*
X15738D01*
X18277D01*
Y246117D01*
X15738Y243578D01*
X13199D01*
X10660Y246117D01*
X25895Y243578D02*
X30973D01*
X28434D01*
Y258813D01*
X25895Y256274D01*
X963927Y810764D02*
X961387Y813303D01*
X956309D01*
X953770Y810764D01*
Y800607D01*
X956309Y798068D01*
X961387D01*
X963927Y800607D01*
X969005Y798068D02*
X974083D01*
X971544D01*
Y813303D01*
X969005Y810764D01*
M02*
