G04*
G04 #@! TF.GenerationSoftware,Altium Limited,Altium Designer,23.8.1 (32)*
G04*
G04 Layer_Color=16711935*
%FSLAX44Y44*%
%MOMM*%
G71*
G04*
G04 #@! TF.SameCoordinates,2CD9F57F-E5B0-4E4F-9D8E-019A79B69F08*
G04*
G04*
G04 #@! TF.FilePolarity,Negative*
G04*
G01*
G75*
%ADD24C,2.1031*%
%ADD25C,1.8532*%
G04:AMPARAMS|DCode=26|XSize=1.8532mm|YSize=1.8532mm|CornerRadius=0.5141mm|HoleSize=0mm|Usage=FLASHONLY|Rotation=0.000|XOffset=0mm|YOffset=0mm|HoleType=Round|Shape=RoundedRectangle|*
%AMROUNDEDRECTD26*
21,1,1.8532,0.8250,0,0,0.0*
21,1,0.8250,1.8532,0,0,0.0*
1,1,1.0282,0.4125,-0.4125*
1,1,1.0282,-0.4125,-0.4125*
1,1,1.0282,-0.4125,0.4125*
1,1,1.0282,0.4125,0.4125*
%
%ADD26ROUNDEDRECTD26*%
D24*
X1071110Y94480D02*
D03*
Y164480D02*
D03*
X692650Y94579D02*
D03*
Y164579D02*
D03*
X1950570Y94579D02*
D03*
Y164579D02*
D03*
X1824840Y94579D02*
D03*
Y164579D02*
D03*
X1699110Y94579D02*
D03*
Y164579D02*
D03*
X1573380Y94579D02*
D03*
Y164579D02*
D03*
X1447650Y94579D02*
D03*
Y164579D02*
D03*
X1321920Y94579D02*
D03*
Y164579D02*
D03*
X1196190Y94579D02*
D03*
Y164579D02*
D03*
X944730Y94579D02*
D03*
Y164579D02*
D03*
X819000Y94579D02*
D03*
Y164579D02*
D03*
X567540Y94579D02*
D03*
Y164579D02*
D03*
X441810Y94579D02*
D03*
Y164579D02*
D03*
X316080Y94579D02*
D03*
Y164579D02*
D03*
X190350Y94579D02*
D03*
Y164579D02*
D03*
X65120Y94579D02*
D03*
Y164579D02*
D03*
D25*
X582160Y401820D02*
D03*
X556760D02*
D03*
X582160Y376420D02*
D03*
X556760D02*
D03*
X480560Y401820D02*
D03*
Y376420D02*
D03*
X455160Y401820D02*
D03*
Y376420D02*
D03*
X404360Y401820D02*
D03*
X429760Y376420D02*
D03*
Y401820D02*
D03*
X505960Y376420D02*
D03*
Y401820D02*
D03*
X531360Y376420D02*
D03*
Y401820D02*
D03*
D26*
X404360Y376420D02*
D03*
M02*
